<?xml version="1.0" encoding="UTF-8" standalone="no"?>
<svg
   xmlns:osb="http://www.openswatchbook.org/uri/2009/osb"
   xmlns:dc="http://purl.org/dc/elements/1.1/"
   xmlns:cc="http://creativecommons.org/ns#"
   xmlns:rdf="http://www.w3.org/1999/02/22-rdf-syntax-ns#"
   xmlns:svg="http://www.w3.org/2000/svg"
   xmlns="http://www.w3.org/2000/svg"
   xmlns:sodipodi="http://sodipodi.sourceforge.net/DTD/sodipodi-0.dtd"
   xmlns:inkscape="http://www.inkscape.org/namespaces/inkscape"
   id="svg1528"
   version="1.1"
   viewBox="0 0 300 200"
   height="200mm"
   width="300mm"
   sodipodi:docname="gofrm-logo.svg"
   inkscape:version="0.92.2 (5c3e80d, 2017-08-06)"
   inkscape:export-filename="C:\Users\Anna\Pictures\gofrm-1year-logo.png"
   inkscape:export-xdpi="188.37"
   inkscape:export-ydpi="188.37">
  <sodipodi:namedview
     pagecolor="#ffffff"
     bordercolor="#666666"
     borderopacity="1"
     objecttolerance="10"
     gridtolerance="10"
     guidetolerance="10"
     inkscape:pageopacity="1"
     inkscape:pageshadow="2"
     inkscape:window-width="1920"
     inkscape:window-height="986"
     id="namedview3777"
     showgrid="false"
     inkscape:zoom="1.4142136"
     inkscape:cx="750.25566"
     inkscape:cy="408.92468"
     inkscape:window-x="-11"
     inkscape:window-y="-11"
     inkscape:window-maximized="1"
     inkscape:current-layer="svg1528"
     inkscape:snap-text-baseline="true"
     inkscape:pagecheckerboard="false"
     width="300mm" />
  <defs
     id="defs1522">
    <linearGradient
       id="linearGradient6810"
       osb:paint="solid">
      <stop
         style="stop-color:#d1aae5;stop-opacity:1;"
         offset="0"
         id="stop6808" />
    </linearGradient>
    <linearGradient
       id="linearGradient6739"
       osb:paint="solid">
      <stop
         style="stop-color:#d1aae5;stop-opacity:1;"
         offset="0"
         id="stop6737" />
    </linearGradient>
  </defs>
  <metadata
     id="metadata1525">
    <rdf:RDF>
      <cc:Work
         rdf:about="">
        <dc:format>image/svg+xml</dc:format>
        <dc:type
           rdf:resource="http://purl.org/dc/dcmitype/StillImage" />
        <dc:title />
      </cc:Work>
    </rdf:RDF>
  </metadata>
  <g
     inkscape:groupmode="layer"
     id="layer6"
     inkscape:label="Farben"
     transform="translate(0,-97)">
    <path
       style="fill:#7dff53;fill-opacity:1;stroke:none;stroke-width:0.52916664;stroke-opacity:1"
       d="m 124.25182,229.7313 c 0,-5.81525 1.28972,-27.78502 2.08923,-35.58897 0.84428,-8.24098 1.15369,-9.80253 2.3451,-11.83553 2.30583,-3.93459 6.76753,-6.86632 13.05991,-8.5815 4.12675,-1.12488 13.08279,-1.25483 17.69534,-0.25677 7.22952,1.56432 14.30901,6.13267 16.84565,10.87039 1.06057,1.98085 1.14194,2.85067 1.09132,11.66545 -0.037,6.43754 -0.50866,13.60832 -1.45521,22.12227 -0.77028,6.9285 -1.40051,12.70303 -1.40051,12.83229 0,0.12927 -0.9525,0.23503 -2.11667,0.23503 h -2.11666 v -2.28699 c 0,-5.82684 -4.19744,-11.63519 -10.20307,-14.11884 -2.36668,-0.97875 -2.97219,-1.45124 -2.6745,-2.08697 0.75203,-1.60601 0.37205,-4.25072 -0.78816,-5.48571 -0.63301,-0.67382 -1.15094,-1.61299 -1.15094,-2.08705 0,-1.51002 -2.14951,-2.50944 -5.39721,-2.50944 -2.74715,0 -3.13463,0.14236 -3.96061,1.45521 -0.50356,0.80036 -1.47829,2.14821 -2.16607,2.99523 -0.95171,1.17203 -1.21002,2.05053 -1.08102,3.67648 0.1636,2.06218 0.10476,2.15005 -1.6923,2.52728 -8.08181,1.6965 -13.73145,7.81256 -13.74345,14.87809 -0.005,3.02686 -0.0134,3.04271 -1.59267,3.04271 -1.381,0 -1.5875,-0.19027 -1.5875,-1.46266 z m 45.41211,-23.19475 c 4.35531,-2.17035 6.5757,-6.88854 5.37143,-11.41394 -1.28184,-4.81686 -5.13842,-7.84949 -9.98218,-7.84949 -3.22086,0 -5.14044,0.68542 -7.13371,2.54721 -6.98473,6.52399 -2.53127,17.8344 7.10658,18.04852 1.03994,0.0231 3.11297,-0.57241 4.63788,-1.3323 z m -27.43002,-1.79604 c 2.55315,-1.30252 4.48346,-3.78483 5.28478,-6.79604 1.20428,-4.5254 -1.01612,-9.2436 -5.37143,-11.41394 -3.26774,-1.62839 -6.19241,-1.74674 -9.16419,-0.37085 -4.15516,1.92378 -6.08542,5.02451 -6.08542,9.77554 0,7.42824 8.4856,12.30023 15.33626,8.80529 z"
       id="path4990"
       inkscape:connector-curvature="0" />
    <path
       style="fill:#858774;fill-opacity:1;stroke:none;stroke-width:0.52916664;stroke-opacity:1"
       d="m 148.37146,207.84956 c -0.91152,-0.71701 -1.36517,-1.52544 -1.26198,-2.24896 0.14402,-1.0099 0.49744,-1.12956 3.33609,-1.12956 3.04198,0 3.18181,0.0588 3.3375,1.40404 0.11358,0.98131 -0.20069,1.65844 -1.04378,2.24896 -1.61428,1.13069 -2.66542,1.06463 -4.36783,-0.27448 z"
       id="path5012"
       inkscape:connector-curvature="0" />
    <path
       style="fill:#858774;fill-opacity:1;stroke:none;stroke-width:0.52916664;stroke-opacity:1"
       d="m 209.97682,212.14396 c -0.58209,-0.58209 -1.05834,-1.65365 -1.05834,-2.38125 0,-1.21795 0.19171,-1.32292 2.41604,-1.32292 2.90111,0 4.46313,0.73681 4.46313,2.10528 0,1.22855 -1.91261,2.65722 -3.55733,2.65722 -0.66284,0 -1.68142,-0.47625 -2.2635,-1.05833 z"
       id="path5014"
       inkscape:connector-curvature="0" />
    <path
       style="fill:none;stroke:#000000;stroke-width:0.26458332px;stroke-linecap:butt;stroke-linejoin:miter;stroke-opacity:1"
       d="M 65.481034,182.12756 63.610147,157.43185 76.706352,176.5149 Z"
       id="path5016"
       inkscape:connector-curvature="0" />
  </g>
  <g
     id="layer1"
     transform="matrix(1.2782171,0,0,1.1965522,23.875741,-87.33145)">
    <g
       id="g1485"
       transform="translate(409.31382,65.137426)">
      <path
         style="fill:#bce8ff;fill-opacity:1;stroke:none;stroke-width:1.88976383;stroke-linejoin:round;stroke-miterlimit:4;stroke-dasharray:none;stroke-dashoffset:0;stroke-opacity:1"
         d="m -1175.4844,60.927734 a 288.84507,287.83825 0 0 0 -288.8457,287.837886 288.84507,287.83825 0 0 0 70.75,188.18555 h 10.834 c -16.0433,-17.53696 -29.8775,-37.11575 -41.0527,-58.3125 a 478.8123,159.6041 0 0 1 249.3242,-23.50976 478.8123,159.6041 0 0 1 247.46874,23.19921 c -11.20376,21.3162 -25.09307,41.00041 -41.21484,58.62305 h 11.08398 A 288.84507,287.83825 0 0 0 -886.63867,348.76562 288.84507,287.83825 0 0 0 -1175.4844,60.927734 Z m 109.6309,84.035156 a 31.819805,16.667516 8.8234814 0 1 9.4062,0.69922 31.819805,16.667516 8.8234814 0 1 28.8848,21.35156 31.819805,16.667516 8.8234814 0 1 -6.3496,8.08594 33.335032,9.5964482 8.8234814 0 1 14.6973,10.58789 33.335032,9.5964482 8.8234814 0 1 -24.5606,5.44922 19.192897,18.182744 8.8234814 0 1 -0.1816,2.4668 19.192897,18.182744 8.8234814 0 1 -20.2793,15.1914 19.192897,9.5964482 8.8234814 0 1 6.3457,8.71094 19.192897,9.5964482 8.8234814 0 1 -20.4375,6.54102 19.192897,9.5964482 8.8234814 0 1 -4.2442,-0.91993 16.16244,20.20305 8.8234814 0 1 -18.1992,13.79102 16.16244,20.20305 8.8234814 0 1 -7.9746,-4.36524 12.626906,13.131983 8.8234814 0 1 -8.4961,1.8086 12.626906,13.131983 8.8234814 0 1 -10.6172,-12.60547 22.223356,18.687822 8.8234814 0 1 -9.4472,0.29102 22.223356,18.687822 8.8234814 0 1 -19.0957,-21.875 22.223356,18.687822 8.8234814 0 1 2.5585,-6.45899 18.687822,17.677669 8.8234814 0 1 -7.1347,-16.74023 18.687822,17.677669 8.8234814 0 1 19.6094,-14.77344 19.697974,14.647212 8.8234814 0 1 20.0879,-7.17774 19.697974,14.647212 8.8234814 0 1 7.1152,2.19141 31.819805,32.829956 8.8234814 0 1 21.9199,-4.8418 31.819805,32.829956 8.8234814 0 1 3.5664,0.79493 31.819805,16.667516 8.8234814 0 1 22.8262,-8.20313 z m -302.0645,62.67773 a 11.616754,8.5862961 0 0 1 11.1856,6.27344 22.223356,14.647212 0 0 1 1.4785,0.19336 8.5862961,7.0710676 0 0 1 8.5488,-6.4668 8.5862961,7.0710676 0 0 1 8.5039,6.1543 12.626906,10.101525 0 0 1 1.5977,-0.0937 12.626906,10.101525 0 0 1 12.6055,9.625 16.667516,9.0913718 0 0 1 5.5761,-0.5332 16.667516,9.0913718 0 0 1 16.668,9.0918 16.667516,9.0913718 0 0 1 -16.668,9.09179 16.667516,9.0913718 0 0 1 -3.3789,-0.1914 13.131983,8.0812201 0 0 1 -12.2773,5.24218 13.131983,8.0812201 0 0 1 -3.3418,-0.27734 16.16244,11.616754 0 0 1 -15.8516,9.36719 16.16244,11.616754 0 0 1 -16.1621,-11.61524 16.16244,11.616754 0 0 1 0.2012,-1.73633 22.223356,14.647212 0 0 1 -13.0391,-11.08398 14.843079,4.9287781 0 0 1 -8.2597,-1.99023 23.934451,6.444007 0 0 1 -18.6915,-6.28125 23.934451,6.444007 0 0 1 23.9356,-6.44336 23.934451,6.444007 0 0 1 5.7559,0.19531 11.616754,8.5862961 0 0 1 11.6132,-8.52149 z"
         id="rect1247-3"
         inkscape:connector-curvature="0"
         transform="scale(0.26458333)" />
      <path
         style="fill:#3a4781;fill-opacity:1;stroke:#000000;stroke-width:1.88976383;stroke-miterlimit:4;stroke-dasharray:none;stroke-opacity:1"
         d="m -1249.0117,90.908203 c -0.7845,0.08661 -1.7442,0.511968 -2.1836,1.199219 -0.605,0.946129 -0.7813,4.029623 -0.7813,13.757808 v 12.53711 l -2.1445,3.35743 -2.1465,3.35546 -0.1738,24.64063 c -0.1717,24.35425 -0.1878,24.67372 -1.4609,27.36523 -1.4198,3.00155 -2.2066,9.99942 -2.25,20.03516 -0.019,4.22494 -0.1833,5.60062 -0.5625,4.69531 -0.2948,-0.7042 -0.3922,-2.34664 -0.2168,-3.65039 0.1752,-1.30382 0.018,-4.19622 -0.3477,-6.42773 -0.6181,-3.77208 -0.8785,-4.21499 -3.7285,-6.30469 -1.6859,-1.23621 -4.1091,-2.89987 -5.3848,-3.69531 -1.2756,-0.79574 -2.3203,-1.73659 -2.3203,-2.09375 0,-1.17241 -12.729,0.0695 -14.0527,1.37109 l -1.2266,1.20899 v 112.65039 112.65039 l -1.7734,0.10547 c -0.9755,0.0563 -3.0629,0.0216 -4.6387,-0.0801 -1.7798,-0.11392 -2.8652,0.16861 -2.8652,0.74804 0,0.62831 -2.4042,0.93164 -7.3672,0.93164 h -7.3672 l -0.043,12.16407 c -0.024,6.68972 -0.1672,11.68247 -0.3183,11.0957 -0.1553,-0.60128 -1.2183,-1.06641 -2.4375,-1.06641 h -2.1621 l 0.3691,8.41407 c 0.204,4.6275 0.2033,10.51683 0,13.08789 l -0.373,4.67383 -2.8848,1.42382 c -3.5192,1.73518 -3.6074,1.73721 -3.6074,0.14063 0,-0.70379 -0.3701,-1.2793 -0.8203,-1.2793 -0.4501,0 -0.8184,-0.33482 -0.8184,-0.74414 0,-0.40932 -0.981,-0.99092 -2.1816,-1.29101 l -2.1836,-0.54493 -0.02,-27.09179 c -0.023,-29.78982 -0.5577,-104.64623 -0.75,-104.96485 -0.067,-0.10979 -2.0686,-0.60395 -4.4492,-1.0957 -7.0669,-1.46003 -7.3301,-1.59594 -7.3301,-3.79688 0,-1.6791 -0.3607,-2.05373 -2.4551,-2.54492 -1.9394,-0.45483 -2.457,-0.92354 -2.457,-2.23047 0,-1.32223 -0.3841,-1.65429 -1.9102,-1.65429 -1.5796,0 -1.9101,0.31017 -1.9101,1.80078 0,1.78378 -0.117,1.80049 -11.5958,1.59375 -17.6486,-0.31816 -16.7812,-0.44713 -16.7812,2.5 0,2.0646 -0.1833,2.40435 -1.0898,2.0332 -0.6003,-0.24559 -1.0918,-1.0924 -1.0918,-1.88281 0,-2.01131 -1.0844,-3.48438 -2.5645,-3.48438 -1.0612,0 -1.2559,0.44261 -1.2559,2.875 0,2.84115 -0.04,2.89039 -3.3418,3.90625 l -3.3437,1.02735 0.2676,39.73828 c 0.2125,31.64133 0.1311,39.23675 -0.3965,37.2793 -0.9298,-3.44988 -3.3975,-7.83478 -5.2559,-9.33789 -0.9396,-0.75995 -1.5722,-1.96119 -1.5722,-2.98438 0,-0.94159 -0.3821,-1.94221 -0.8496,-2.22266 -1.2522,-0.75155 -0.9021,-12.84945 0.4394,-15.17382 1.3473,-2.33424 1.1876,-4.51603 -0.4961,-6.78125 -1.1784,-1.58552 -1.5334,-3.02034 -1.8887,-7.63477 -0.5687,-7.38954 -1.066,-8.67977 -4.3457,-11.2793 -1.504,-1.19213 -2.8154,-2.63333 -2.916,-3.20117 -0.1005,-0.56765 -0.4976,-2.66304 -0.8808,-4.65625 -0.609,-3.16849 -0.5824,-3.81976 0.209,-5.1875 1.3628,-2.35582 1.2345,-9.04778 -0.1934,-10.04883 -1.081,-0.75787 -1.0779,-0.82241 0.2715,-3.92578 0.7546,-1.73552 1.373,-3.58689 1.373,-4.11523 0,-0.528 0.3682,-1.53547 0.8184,-2.24024 1.1373,-1.77883 1.0212,-4.79988 -0.2735,-7.13476 -0.6002,-1.08253 -1.0918,-2.42602 -1.0918,-2.98633 0,-0.56054 -0.4895,-1.90564 -1.0898,-2.98828 -0.6003,-1.08257 -1.0918,-2.29425 -1.0918,-2.69141 0,-0.39704 -0.5825,-0.72265 -1.293,-0.72265 -1.3,0 -3.1055,3.45004 -4.58,8.75 -0.3592,1.29101 -1.0258,2.3457 -1.4825,2.3457 -0.5218,0 -0.83,0.79363 -0.83,2.13476 0,1.17415 0.2623,2.13477 0.5839,2.13477 0.8695,0 2.1446,2.24628 2.1446,3.7793 0,0.7375 0.1914,1.34179 0.4258,1.34179 0.2343,0 0.6998,1.13008 1.0332,2.51172 0.5141,2.13064 0.4478,2.73331 -0.4278,3.97266 -1.3384,1.89275 -1.3358,6.33987 0,9.00391 0.9358,1.86081 0.9719,2.47863 0.3614,6.30468 -0.6364,3.98763 -0.8693,4.39292 -3.9024,6.80078 -3.5403,2.81057 -4.4992,5.32897 -4.5586,11.97266 -0.033,3.72129 -1.2555,7.23242 -2.5176,7.23242 -1.0667,0 -1.0031,3.33426 0.1,5.24024 1.2668,2.18951 1.659,15.08138 0.4804,15.78906 -0.4524,0.27163 -0.8222,1.21264 -0.8222,2.0918 0,0.99681 -0.7967,2.23305 -2.1153,3.28515 -3.9359,3.14083 -5.6146,7.6668 -6.3281,17.06055 -0.4187,5.51286 -1.0025,7.44495 -2.4707,8.17383 -1.7325,0.86003 -1.3544,4.15669 0.8184,7.14062 l 1.9101,2.62305 -0.01,17.73828 c 0,9.75564 -0.1898,18.12208 -0.4102,18.5918 -0.2205,0.46945 -2.2411,0.85755 -4.4921,0.86133 -0.6138,10e-4 -1.293,0.0288 -1.9883,0.0742 45.182,106.34387 149.7698,175.48286 265.6562,175.61524 159.5256,3.6e-4 288.84662,-128.87029 288.84573,-287.83985 -0.0235,-6.05017 -0.23848,-12.09809 -0.64453,-18.13476 -0.0988,0.28677 -0.1543,0.53169 -0.1543,0.71484 0,1.1613 -0.82425,1.28036 -6.27539,0.9043 -3.45165,-0.23936 -6.27734,-0.15505 -6.27734,0.18359 0,0.33937 -2.3939,0.8474 -5.32032,1.13086 -8.6437,0.8366 -7.77539,-1.38087 -7.77539,19.89258 v 18.25195 l -1.77344,0.008 c -0.97539,0.003 -3.39825,0.24577 -5.38281,0.53906 l -3.60742,0.5332 -1.32617,-5.44726 c -1.19067,-4.88954 -1.49721,-5.47333 -2.97852,-5.70313 -1.86697,-0.28943 -2.66731,1.55301 -3.27929,7.53906 -0.19038,1.86256 -0.56073,3.38672 -0.82227,3.38672 -0.26196,0 -0.47656,0.7224 -0.47656,1.60352 0,0.88142 -0.36814,2.07933 -0.81836,2.66406 -0.45007,0.58443 -0.81836,1.74348 -0.81836,2.57422 0,0.83116 -0.36814,1.73209 -0.81836,2.00195 -0.58458,0.35105 -0.81836,1.78121 -0.81836,5.00586 0,2.48251 -0.21911,5.70731 -0.48633,7.16602 -0.2677,1.45871 -0.56775,13.17056 -0.66601,26.02734 -0.0987,12.85667 -0.26893,24.00428 -0.37891,24.77149 -0.20632,1.43614 -2.23092,1.24216 -2.87695,-0.27539 -0.17265,-0.40581 -1.58356,-0.97448 -3.13672,-1.26172 l -2.82422,-0.52149 v -57.375 -57.375 l -5.86719,-0.4707 c -3.5619,-0.28607 -6.12461,-0.1384 -6.52539,0.37891 -0.36287,0.46866 -1.40759,0.59457 -2.32031,0.28125 -1.26459,-0.43442 -1.6582,-1.03907 -1.6582,-2.54102 0,-2.53629 -1.80747,-3.02226 -8.45899,-2.28125 l -4.91211,0.54688 -0.16797,2.71093 c -0.18085,2.91776 -0.28887,2.96763 -8.83593,3.90821 l -1.91016,0.21093 -0.27148,9.38867 -0.27344,9.38868 -2.10742,0.26953 c -1.48509,0.19071 -2.18231,0.7296 -2.36524,1.82226 -0.26963,1.6125 -2.52537,2.56465 -6.16797,2.60547 -3.2253,0.0355 -4.3672,0.84065 -4.3672,3.08399 0,1.43652 -0.3077,2.03515 -1.0469,2.03515 -2.6806,0 -2.7701,0.38799 -2.789,11.82813 -0.012,7.13556 -0.244,11.24834 -0.6836,12.14258 -0.4668,0.94926 -1.5179,1.3334 -3.5293,1.28125 -1.5755,-0.0393 -2.865,-0.36102 -2.8652,-0.71289 -2e-4,-0.35142 -2.3417,-0.64063 -5.2032,-0.64063 h -5.2011 l 0.057,-62.29102 c 0.032,-34.26014 -0.073,-62.62369 -0.2344,-63.03124 -0.1608,-0.40668 -3.0402,-0.98702 -6.3984,-1.28711 -3.3582,-0.30036 -6.2521,-0.77791 -6.4317,-1.0625 -0.1795,-0.28392 -0.3181,-4.89933 -0.3105,-10.25586 l 0.016,-9.73829 -6.8379,-0.0117 c -8.7867,-0.0151 -9.1236,-0.16819 -9.5742,-4.33985 -0.3149,-2.91549 -0.5461,-3.33008 -1.8418,-3.33008 -0.8142,0 -2.1414,-0.47967 -2.9492,-1.0664 l -1.4688,-1.06836 -0.061,-11.52344 c -0.1328,-25.39623 -0.496,-41.31521 -0.959,-42.03906 -0.2682,-0.41681 -1.2951,-0.63713 -2.2832,-0.48633 l -1.7969,0.27539 0.1289,26.5918 0.1289,26.59375 -1.6699,0.57226 c -0.9183,0.31544 -1.8092,0.92763 -1.9804,1.36133 -0.1713,0.43351 -0.7585,0.78906 -1.3047,0.78906 -0.5884,0 -1.2691,1.04076 -1.67,2.55469 -0.4884,1.84562 -1.2267,2.7877 -2.6582,3.39258 -1.0899,0.46091 -2.5336,1.44746 -3.2089,2.18945 l -1.2286,1.34961 V 349.9943 458.64664 c 53.474,3.63587 104.68961,10.2923 151.43364,19.68164 -46.80952,89.05947 -140.41184,149.75 -248.47854,149.75 -107.9407,1e-5 -201.4505,-60.54984 -248.3144,-149.43945 47.6332,-9.7244 148.1175,-18.68492 202.8561,-22.39206 -1.5918,-50.63344 3.8119,-160.41244 0.6185,-213.40286 V 196.7736 l -1.7735,-1.44336 c -1.2929,-1.05196 -3.6603,-1.5504 -8.7324,-1.8418 l -6.957,-0.39844 v -5.90429 c 0,-5.3339 -0.1442,-6.1104 -1.4922,-8.06446 l -1.4902,-2.16211 -0.1231,-25.92578 c -0.1102,-23.58296 -0.2089,-26.07974 -1.0996,-27.61132 -0.5386,-0.92606 -1.2965,-2.28744 -1.6836,-3.0254 -0.387,-0.73765 -1.153,-1.34179 -1.7031,-1.34179 -1.253,0 -1.4987,-2.78972 -1.4492,-16.42969 0.028,-7.723918 -0.1276,-10.028957 -0.6778,-10.029297 -0.3923,0 -0.5625,-0.383799 -0.3769,-0.853515 0.2639,-0.667824 -0.3445,-0.920593 -1.1289,-0.833985 z"
         transform="scale(0.26458333)"
         id="path1101-5"
         inkscape:connector-curvature="0"
         sodipodi:nodetypes="ccscccccccccccsccccccsscccscccccssscccccscssscscssscccccsccccccccccsccscsscsssssccccccsccsccccccccccccscscscccccccsscscscccccccccccsccccccccccsscccsscccccccccsccccccccccscccccccscccccccscccccsccccc" />
      <circle
         style="fill:none;fill-opacity:1;stroke:#000000;stroke-width:1;stroke-linejoin:round;stroke-miterlimit:4;stroke-dasharray:none;stroke-dashoffset:0;stroke-opacity:1"
         id="path1212-1"
         cx="-310.74622"
         cy="92.011383"
         r="78.619049" />
      <path
         style="opacity:1;vector-effect:none;fill:#ffffff;fill-opacity:1;stroke:#000000;stroke-width:1;stroke-linecap:butt;stroke-linejoin:round;stroke-miterlimit:4;stroke-dasharray:none;stroke-dashoffset:0;stroke-opacity:1"
         d="m -310.74621,120.41928 a 126.68576,42.228584 0 0 0 -65.96704,6.22029 c 12.39942,23.51871 37.14056,39.53918 65.69987,39.53918 28.59263,0 53.35825,-16.05769 65.74327,-39.62134 a 126.68576,42.228584 0 0 0 -65.4761,-6.13813 z"
         id="path1229-1"
         inkscape:connector-curvature="0" />
      <ellipse
         style="fill:none;fill-opacity:1;stroke:#000000;stroke-width:1;stroke-linejoin:round;stroke-miterlimit:4;stroke-dasharray:none;stroke-dashoffset:0;stroke-opacity:1"
         id="path1212-2-1"
         cx="-311.01349"
         cy="92.277771"
         rx="76.423592"
         ry="76.157204" />
      <g
         id="text1269-6"
         style="font-style:normal;font-variant:normal;font-weight:normal;font-stretch:normal;font-size:19.75555611px;line-height:1.25;font-family:'Indie Flower';-inkscape-font-specification:'Indie Flower, Normal';font-variant-ligatures:normal;font-variant-caps:normal;font-variant-numeric:normal;font-feature-settings:normal;text-align:start;letter-spacing:0px;word-spacing:0px;writing-mode:lr-tb;text-anchor:start;fill:#000000;fill-opacity:1;stroke:none;stroke-width:0.26458332"
         aria-label="#GOFRM"
         transform="translate(-370.08006,-114.84129)">
        <path
           id="path1205"
           style="font-style:normal;font-variant:normal;font-weight:normal;font-stretch:normal;font-size:19.75555611px;font-family:'Indie Flower';-inkscape-font-specification:'Indie Flower, Normal';font-variant-ligatures:normal;font-variant-caps:normal;font-variant-numeric:normal;font-feature-settings:normal;text-align:start;writing-mode:lr-tb;text-anchor:start;stroke:none;stroke-width:0.26458332"
           d="m 32.602393,264.86802 -0.691408,1.50823 q -0.01608,0.0351 -0.118389,0.0731 -0.09427,0.0205 -0.119846,0.0299 -0.06869,0.011 -0.241151,0.0168 -0.146882,-0.004 -0.181957,-0.0197 -0.210451,-0.0965 -0.241861,-0.25944 -0.03141,-0.16296 0.0044,-0.37999 0.05336,-0.20899 0.149836,-0.41944 0.104516,-0.22799 0.149837,-0.41945 0.0709,-0.20095 0.05702,-0.35587 0.01171,-0.16442 -0.163671,-0.24482 -0.03508,-0.0161 -0.113265,-0.0307 -0.05261,-0.0241 -0.07015,-0.0322 -0.07819,-0.0146 -0.357333,-0.10014 -0.279143,-0.0855 -0.654013,-0.1937 -0.37487,-0.10818 -0.792855,-0.2149 -0.409945,-0.12426 -0.784815,-0.23244 -0.374871,-0.10818 -0.662053,-0.17616 -0.261605,-0.0775 -0.349293,-0.11768 l -0.105225,-0.0482 q -0.175376,-0.0804 -0.225782,-0.29452 -0.05041,-0.21411 0.03803,-0.40702 0.01608,-0.0351 0.0402,-0.0877 0.04166,-0.0446 0.0497,-0.0621 0.965314,0.20907 1.844399,0.42105 0.904662,0.20249 1.828319,0.45613 0.07819,0.0146 0.191455,0.0453 0.138842,0.0212 0.252107,0.0519 0.121305,0.0132 0.199495,0.0278 0.09573,0.0227 0.103767,0.005 l 0.530616,-1.15748 -0.0694,-0.26527 q -0.01754,-0.008 -0.08769,-0.0402 -0.04457,-0.0417 -0.132261,-0.0818 -0.07015,-0.0322 -0.157838,-0.0724 -0.07015,-0.0322 -0.105225,-0.0482 -0.57874,-0.2653 -1.229836,-0.37277 -0.651097,-0.10747 -1.308774,-0.15429 -0.64014,-0.0388 -1.238624,-0.12213 -0.580946,-0.0753 -1.019385,-0.2763 -0.192914,-0.0884 -0.283518,-0.21487 -0.0906,-0.12642 0.02195,-0.37195 0.152754,-0.33321 0.643095,-0.38433 0.490342,-0.0511 1.149478,0.0388 0.676673,0.098 1.399378,0.28071 0.740243,0.19078 1.359181,0.3684 0.644515,0.16813 1.0625,0.27485 0.417985,0.10672 0.466222,10e-4 l 1.077312,-2.35003 q 0.03216,-0.0702 0.134467,-0.10814 0.110348,-0.0555 0.222155,-0.0679 0.137384,-0.0219 0.258689,-0.009 0.138842,0.0212 0.208992,0.0534 -0.128634,0.2806 -0.238272,0.61235 -0.109639,0.33176 -0.209779,0.68909 -0.0921,0.3398 -0.166664,0.68763 -0.06652,0.3303 -0.142545,0.63502 0.232363,0.23386 0.409197,0.35737 0.194372,0.13155 0.457435,0.25214 0.08769,0.0402 0.22653,0.0614 0.15638,0.0292 0.293764,0.007 0.162961,-0.0314 0.290847,-0.0789 0.127886,-0.0475 0.176124,-0.15271 0.0804,-0.17538 0.10014,-0.35733 0.02778,-0.1995 0.03803,-0.40703 0.01025,-0.20754 0.03803,-0.40703 0.0117,-0.16442 0.0921,-0.3398 0.112554,-0.24552 0.339833,-0.41723 0.227278,-0.17171 0.490341,-0.0511 0.03507,0.0161 0.08769,0.0402 0.05261,0.0241 0.08769,0.0402 -0.04678,0.14834 -0.145462,0.54878 -0.09064,0.38291 -0.162289,0.81698 -0.06361,0.41652 -0.09506,0.7629 -0.02341,0.32884 0.06428,0.36904 l 2.858623,1.31046 q 0.01754,0.008 0.04749,0.12788 0.05553,0.11035 0.112517,0.26382 0.05699,0.15346 0.105935,0.32446 0.07453,0.1615 0.112517,0.26381 l -0.02412,0.0526 q -0.01608,0.0351 -0.01608,0.0351 0.01754,0.008 0.0095,0.0256 -0.03216,0.0702 -0.134467,0.10814 -0.08477,0.046 -0.204618,0.076 -0.111807,0.0124 -0.215574,0.007 -0.103767,-0.005 -0.15638,-0.0292 -0.01754,-0.008 -0.06211,-0.0497 -0.02704,-0.0336 -0.08111,-0.10086 -0.03653,-0.0592 -0.08111,-0.10085 -0.02704,-0.0336 -0.03653,-0.0592 -0.03507,-0.0161 -0.132261,-0.0819 -0.08915,-0.0833 -0.221407,-0.16517 -0.106683,-0.0913 -0.238944,-0.17321 -0.124221,-0.0994 -0.176834,-0.12351 l -0.08769,-0.0402 -0.08769,-0.0402 q -0.191455,-0.0453 -0.462558,-0.14837 -0.271103,-0.10306 -0.515171,-0.1725 -0.29668,-0.0936 -0.602858,-0.2127 l -0.538656,1.17502 0.08548,0.23019 q 0.37487,0.10818 0.67155,0.20174 0.296681,0.0936 0.532709,0.18054 0.253565,0.095 0.499091,0.20757 0.263063,0.1206 0.57874,0.26531 0.280601,0.12863 0.578739,0.26531 0.323716,0.12717 0.519546,0.30184 0.213367,0.1827 0.282769,0.44797 0.07744,0.24774 -0.09943,0.63356 -0.136674,0.29814 -0.487425,0.13735 l -0.175376,-0.0804 q -0.07015,-0.0322 -0.290099,-0.15421 -0.194371,-0.13155 -0.449395,-0.26968 -0.229447,-0.14763 -0.449395,-0.26968 -0.211909,-0.13959 -0.246984,-0.15567 l -0.08769,-0.0402 q -0.140301,-0.0643 -0.445021,-0.14034 -0.287182,-0.068 -0.617479,-0.13451 -0.31276,-0.0585 -0.564867,-0.11038 -0.269645,-0.0599 -0.30472,-0.076 -0.01608,0.0351 -0.05628,0.12276 -0.03216,0.0702 -0.07236,0.15784 -0.0402,0.0877 -0.09793,0.16733 -0.0402,0.0877 -0.05628,0.12277 -0.192951,0.4209 -0.290175,0.86446 -0.07165,0.43406 -0.264597,0.85497 -0.01608,0.0351 -0.02412,0.0526 0,0 -0.01608,0.0351 l -0.02412,0.0526 q -0.05116,0.019 -0.179041,0.0665 -0.127886,0.0475 -0.281349,0.10448 -0.153463,0.057 -0.306926,0.11397 -0.153464,0.057 -0.222156,0.0679 l -0.04311,0.001 -0.03508,-0.0161 q -0.08769,-0.0402 -0.0694,-0.26527 0.02633,-0.24261 0.110387,-0.56487 0.0921,-0.33979 0.217818,-0.70663 0.133757,-0.38436 0.243396,-0.71612 0.109638,-0.33175 0.179078,-0.57582 0.06944,-0.24407 0.04899,-0.33834 l -0.111059,-0.2207 z m 0.583305,-2.15204 q -0.02412,0.0526 -0.0709,0.20095 -0.04678,0.14834 -0.101598,0.31422 -0.03728,0.17392 -0.0921,0.3398 -0.02924,0.15638 -0.01025,0.20753 l 1.652944,0.37573 q 0.03216,-0.0701 0.08186,-0.13226 0.0497,-0.0621 0.07381,-0.11472 0.02412,-0.0526 0.0402,-0.0877 0.01608,-0.0351 0.03874,-0.1308 0.0402,-0.0877 0.07236,-0.15784 0.0402,-0.0877 0.04678,-0.14834 0.03216,-0.0702 0.0402,-0.0877 0.01462,-0.0782 7.48e-4,-0.23311 0.0117,-0.16442 -0.02337,-0.1805 l -1.175016,-0.53865 q -0.01754,-0.008 -0.119847,0.03 -0.08477,0.046 -0.118388,0.0731 -0.05919,0.0365 -0.193661,0.14468 -0.126428,0.0906 -0.142507,0.12568 z"
           inkscape:connector-curvature="0" />
        <path
           id="path1207"
           style="font-style:normal;font-variant:normal;font-weight:normal;font-stretch:normal;font-size:19.75555611px;font-family:'Indie Flower';-inkscape-font-specification:'Indie Flower, Normal';font-variant-ligatures:normal;font-variant-caps:normal;font-variant-numeric:normal;font-feature-settings:normal;text-align:start;writing-mode:lr-tb;text-anchor:start;stroke:none;stroke-width:0.26458332"
           d="m 47.514749,271.83302 q -0.05633,-0.0133 -0.244095,-0.0576 -0.164557,-0.0587 -0.20211,-0.0675 -0.525743,-0.1241 -1.120063,-0.12563 -0.571113,-0.0159 -1.146657,-0.013 -0.575544,0.003 -1.169865,10e-4 -0.571112,-0.0159 -1.153185,-0.15327 -0.788614,-0.18615 -1.364966,-0.59971 -0.57192,-0.43234 -0.907322,-1.0269 -0.335401,-0.59456 -0.424371,-1.30936 -0.08454,-0.73357 0.101611,-1.52219 0.195014,-0.82617 0.733485,-1.51179 0.538472,-0.68563 1.298877,-1.21976 0.764838,-0.5529 1.66764,-0.93448 0.92601,-0.39592 1.868461,-0.60956 0.946883,-0.23241 1.849445,-0.27706 0.906994,-0.0634 1.657007,0.0343 0.384395,0.0511 0.695779,0.24353 0.334594,0.17809 0.534367,0.42347 0.199774,0.24538 0.279072,0.58127 0.08373,0.3171 -0.0049,0.69263 -0.262872,-0.062 -0.49367,-0.176 -0.226366,-0.13272 -0.452733,-0.26544 -0.221934,-0.1515 -0.471509,-0.26988 -0.249575,-0.11838 -0.512447,-0.18043 -0.675955,-0.15956 -1.475769,-0.1303 -0.795383,0.0105 -1.61631,0.21316 -0.802151,0.20711 -1.583429,0.57772 -0.75807,0.35628 -1.411297,0.85624 -0.63445,0.50439 -1.103295,1.14698 -0.450069,0.64703 -0.627355,1.39809 -0.124099,0.52574 0.04126,1.00087 0.165365,0.47514 0.49319,0.84986 0.332257,0.35595 0.766213,0.61696 0.438389,0.24224 0.889026,0.34861 0.826167,0.19502 1.698752,0.36134 0.895793,0.15198 1.662487,0.0951 0.771126,-0.0757 1.34143,-0.47627 0.570304,-0.40059 0.787479,-1.32064 0.02659,-0.11266 0.04666,-0.36562 0.03884,-0.24853 -0.07591,-0.4342 l -3.436105,-0.81108 q -0.150212,-0.0354 -0.263919,-0.14158 -0.09493,-0.1017 -0.180998,-0.24095 -0.08163,-0.15803 -0.106938,-0.30277 -0.02087,-0.1635 0.01015,-0.29494 0.03546,-0.15021 0.108467,-0.29156 0.07744,-0.16012 0.265208,-0.1158 0.187765,0.0443 0.357802,0.16375 0.174469,0.10065 0.344505,0.22007 0.174469,0.10066 0.344506,0.22008 0.174469,0.10065 0.381011,0.14941 0.657178,0.15512 1.322173,0.19315 0.664995,0.038 1.34095,0.19759 0.150213,0.0355 0.297041,0.16923 0.15126,0.115 0.251671,0.27746 0.104843,0.14368 0.158836,0.33483 0.05399,0.19115 0.01854,0.34136 l -1.108033,4.69414 q 0.02869,0.0464 0.104843,0.14368 0.07615,0.0973 0.152308,0.19454 0.07172,0.11604 0.147876,0.21331 0.07172,0.11604 0.100411,0.16246 0.0065,0.1403 -0.09517,0.23523 -0.08736,0.11814 -0.222174,0.18543 -0.139252,0.0861 -0.302761,0.10693 -0.149164,0.0441 -0.261823,0.0175 -0.394308,-0.0931 -0.562008,-0.39035 -0.148924,-0.29285 -0.181805,-0.65742 -0.03288,-0.36457 0.03255,-0.72576 0.06987,-0.37996 0.131916,-0.64283 z"
           inkscape:connector-curvature="0" />
        <path
           id="path1209"
           style="font-style:normal;font-variant:normal;font-weight:normal;font-stretch:normal;font-size:19.75555611px;font-family:'Indie Flower';-inkscape-font-specification:'Indie Flower, Normal';font-variant-ligatures:normal;font-variant-caps:normal;font-variant-numeric:normal;font-feature-settings:normal;text-align:start;writing-mode:lr-tb;text-anchor:start;stroke:none;stroke-width:0.26458332"
           d="m 50.075989,267.85266 q 0.0096,-0.8497 0.30148,-1.56743 0.311185,-0.71664 0.824413,-1.24791 0.514321,-0.55053 1.227406,-0.8579 0.7109,-0.26885 1.543518,-0.29891 1.432597,0.29383 2.71288,0.8882 1.299545,0.59546 2.255252,1.46127 0.974969,0.8669 1.549409,1.9816 0.574439,1.11471 0.574995,2.46739 -0.249437,0.99068 -0.879327,1.53465 -0.62989,0.54397 -1.457451,0.82552 -0.82647,0.2623 -1.759767,0.36394 -0.932204,0.0824 -1.709223,0.15424 -1.194217,-0.0677 -2.193225,-0.51089 -0.978655,-0.46132 -1.671256,-1.19626 -0.67334,-0.73385 -1.040274,-1.75949 -0.347671,-1.02454 -0.27883,-2.23802 z m 0.910757,-0.045 q -0.06953,0.88494 0.271996,1.67725 0.360784,0.79341 0.963635,1.40732 0.60285,0.61391 1.37072,1.04394 0.767869,0.43003 1.551037,0.5904 0.269662,0.0153 0.714864,0.002 0.446294,-0.0326 0.97182,-0.0995 0.526618,-0.0861 1.056515,-0.22991 0.550251,-0.16202 0.988211,-0.38838 0.458314,-0.24453 0.747644,-0.57594 0.309686,-0.34958 0.335911,-0.81186 -0.0802,-0.97073 -0.499857,-1.74815 -0.4004,-0.77634 -1.022512,-1.39134 -0.622112,-0.615 -1.369627,-1.0632 -0.747516,-0.4482 -1.485604,-0.72195 -0.736996,-0.29302 -1.387518,-0.40722 -0.650523,-0.1142 -1.078648,-0.0612 -0.609128,0.178 -1.014028,0.50286 -0.385639,0.32594 -0.639725,0.71732 -0.233731,0.37321 -0.352986,0.77224 -0.09999,0.40013 -0.121848,0.78536 z"
           inkscape:connector-curvature="0" />
        <path
           id="path1211"
           style="font-style:normal;font-variant:normal;font-weight:normal;font-stretch:normal;font-size:19.75555611px;font-family:'Indie Flower';-inkscape-font-specification:'Indie Flower, Normal';font-variant-ligatures:normal;font-variant-caps:normal;font-variant-numeric:normal;font-feature-settings:normal;text-align:start;writing-mode:lr-tb;text-anchor:start;stroke:none;stroke-width:0.26458332"
           d="m 65.126483,273.02134 q -0.173484,-0.50462 -0.26997,-0.84319 -0.09649,-0.33858 -0.165141,-0.60264 -0.05165,-0.28539 -0.07763,-0.51544 -0.02598,-0.23005 -0.07547,-0.49627 -0.03031,-0.26839 -0.107629,-0.60913 -0.07948,-0.35991 -0.214624,-0.86886 -0.100816,-0.37692 -0.32685,-0.4873 -0.228198,-0.12954 -0.515758,-0.0971 -0.270554,0.0111 -0.570789,0.10329 -0.283229,0.0708 -0.551619,0.10114 -0.249218,0.0281 -0.415574,-0.0696 -0.189858,-0.13388 -0.228832,-0.47895 -0.0043,-0.0383 0.06586,-0.10451 0.08719,-0.0875 0.125534,-0.0918 0.340741,-0.0773 0.666642,-0.11413 0.323736,-0.056 0.562129,-0.17998 0.257563,-0.12616 0.404116,-0.3757 0.123052,-0.28571 0.07109,-0.7458 -0.259461,-0.92204 -0.316073,-1.59518 -0.05878,-0.69231 -0.18526,-1.12457 -0.107312,-0.43443 -0.393023,-0.55749 -0.307047,-0.14005 -0.986364,0.0337 -0.07668,0.009 -0.268389,0.0303 -0.172536,0.0195 -0.381248,0.0625 -0.191706,0.0217 -0.383413,0.0433 -0.172535,0.0195 -0.249218,0.0281 -0.03401,0.0427 -0.16171,0.11534 -0.146869,0.0748 -0.183045,0.0983 -0.03834,0.004 -0.05751,0.007 -0.03618,0.0235 -0.05535,0.0257 l -0.04051,-0.0148 -0.03834,0.004 q -0.04267,-0.034 -0.11534,-0.16171 -0.07267,-0.1277 -0.09833,-0.18305 l -0.01083,-0.0959 q 0.238076,-0.2987 0.885231,-0.58536 0.647156,-0.28666 1.550025,-0.54396 0.902869,-0.2573 1.986935,-0.4574 1.084066,-0.2001 2.178959,-0.30434 1.111897,-0.12559 2.183605,-0.0913 1.069542,0.0151 1.924193,0.19039 0.852485,0.15612 1.436898,0.51725 0.586578,0.3803 0.709047,0.94892 -0.613461,0.0693 -1.225073,-0.017 -0.592441,-0.0884 -1.208383,-0.21299 -0.615942,-0.12458 -1.246725,-0.20866 -0.611612,-0.0863 -1.263414,-0.0126 -0.153365,0.0173 -0.460095,0.052 -0.289725,0.0133 -0.673138,0.0566 -0.385578,0.0241 -0.783831,0.10794 -0.400419,0.0646 -0.734664,0.19947 -0.336411,0.11566 -0.527801,0.31201 -0.193556,0.17718 -0.163243,0.44557 0.03248,0.28756 0.05043,0.79033 0.01795,0.50277 0.09775,1.03738 0.07763,0.51544 0.244621,0.96255 0.166989,0.4471 0.497537,0.62333 0.03834,-0.004 0.134194,-0.0152 0.09585,-0.0108 0.210877,-0.0238 0.115024,-0.013 0.230048,-0.026 0.115024,-0.013 0.153365,-0.0173 1.424808,-0.27742 2.313153,-0.31951 0.907516,-0.0443 1.310416,0.085 0.4029,0.12923 0.313859,0.37227 -0.07204,0.2217 -0.606333,0.4762 -0.515126,0.25233 -1.477672,0.49695 -0.964712,0.22545 -2.330158,0.34084 0.135776,0.85835 0.230413,1.35246 0.09247,0.47493 0.163291,0.75816 0.08783,0.2619 0.145653,0.4301 0.05566,0.14904 0.139158,0.37259 0.08133,0.20438 0.162975,0.58346 0.07948,0.35992 0.2001,1.08407 -0.272719,-0.008 -0.502767,0.0179 -0.232213,0.007 -0.404749,0.0263 -0.153365,0.0173 -0.251384,0.009 -0.07885,-0.0105 -0.04484,-0.0532 z"
           inkscape:connector-curvature="0" />
        <path
           id="path1213"
           style="font-style:normal;font-variant:normal;font-weight:normal;font-stretch:normal;font-size:19.75555611px;font-family:'Indie Flower';-inkscape-font-specification:'Indie Flower, Normal';font-variant-ligatures:normal;font-variant-caps:normal;font-variant-numeric:normal;font-feature-settings:normal;text-align:start;writing-mode:lr-tb;text-anchor:start;stroke:none;stroke-width:0.26458332"
           d="m 74.121358,267.5512 q 0.365055,0.79918 0.73069,1.4579 0.378984,0.63493 0.618098,1.12883 0.239114,0.4939 0.290767,0.82007 0.05165,0.32617 -0.261749,0.49448 -0.0058,0.12188 -0.185139,-0.0882 -0.179336,-0.2101 -0.463719,-0.65118 -0.289606,-0.45966 -0.650018,-1.09981 -0.360413,-0.64015 -0.741718,-1.35459 -0.367957,-0.73824 -0.727788,-1.51884 -0.359832,-0.78061 -0.661626,-1.49737 -0.283222,-0.72199 -0.455593,-1.33486 -0.172371,-0.61288 -0.175853,-1.0528 0.175854,-0.22983 0.369118,-0.18398 0.206613,0.0221 0.351707,0.18166 0.163665,0.15438 0.268713,0.38537 0.0679,0.24143 0.08822,0.45617 0.03946,0.0691 0.134066,0.26291 0.113173,0.18862 0.236792,0.41439 0.118397,0.20719 0.231569,0.39581 0.113173,0.18863 0.171211,0.25247 0.249561,-0.11027 0.735334,-0.30702 0.499122,-0.22054 1.062085,-0.49912 0.55774,-0.29715 1.123605,-0.63667 0.584437,-0.34474 1.023201,-0.70864 0.438763,-0.36389 0.670913,-0.74984 0.250722,-0.39117 0.146254,-0.76261 -0.01045,-0.0371 -0.04469,-0.0876 l -0.01567,-0.0557 q -0.687163,-0.44804 -1.330218,-0.66801 -0.643054,-0.21996 -1.30294,-0.21474 -0.646537,-0.0186 -1.330798,0.11376 -0.684262,0.13232 -1.445713,0.34648 -0.557159,0.1567 -1.164811,0.34764 -0.612876,0.17237 -1.091104,0.4672 -0.459657,0.28961 -0.684262,0.77364 -0.224605,0.48403 -0.01567,1.22691 -0.167148,0.047 -0.328492,-0.0279 -0.161344,-0.0749 -0.29599,-0.19732 -0.13987,-0.14103 -0.242597,-0.29251 -0.107949,-0.17005 -0.144513,-0.30006 -0.07313,-0.26 -0.02438,-0.51421 0.04353,-0.27277 0.177014,-0.51073 0.133487,-0.23795 0.314564,-0.44921 0.175853,-0.22982 0.367377,-0.40394 0.562963,-0.27858 0.987797,-0.47822 0.443406,-0.20488 0.841543,-0.35693 0.392913,-0.17063 0.801497,-0.28555 0.421932,-0.13871 0.941948,-0.28496 0.520015,-0.14625 1.121863,-0.21532 0.596625,-0.0876 1.237939,-0.0876 0.641313,0 1.239679,0.13232 0.611715,0.10853 1.129989,0.38363 0.531622,0.2513 0.914089,0.68484 0.377243,0.41497 0.549614,1.02785 0.151477,0.53858 -0.0679,1.04119 -0.219382,0.5026 -0.692967,0.95645 -0.473586,0.45386 -1.103292,0.85141 -0.611135,0.39233 -1.251288,0.75275 -0.626804,0.33661 -1.189767,0.61519 -0.552517,0.31573 -0.892616,0.53162 1.28901,1.0203 2.449758,1.65581 1.160749,0.63551 2.131715,1.02379 0.970966,0.38827 1.730675,0.59546 0.754487,0.18862 1.236197,0.33372 0.481711,0.14509 0.63493,0.26233 0.153218,0.11723 -0.07313,0.3813 -0.131164,0.31747 -0.632027,0.31805 -0.500863,5.8e-4 -1.223429,-0.21706 -0.698771,-0.2043 -1.542635,-0.56819 -0.849087,-0.38247 -1.690049,-0.8073 -0.840962,-0.42484 -1.620985,-0.84677 -0.761451,-0.42716 -1.295395,-0.75797 z"
           inkscape:connector-curvature="0" />
        <path
           id="path1215"
           style="font-style:normal;font-variant:normal;font-weight:normal;font-stretch:normal;font-size:19.75555611px;font-family:'Indie Flower';-inkscape-font-specification:'Indie Flower, Normal';font-variant-ligatures:normal;font-variant-caps:normal;font-variant-numeric:normal;font-feature-settings:normal;text-align:start;writing-mode:lr-tb;text-anchor:start;stroke:none;stroke-width:0.26458332"
           d="m 90.376395,265.50912 q -0.116888,-0.15826 -0.332125,-0.5261 -0.215236,-0.36784 -0.488917,-0.81482 -0.27368,-0.44697 -0.571948,-0.94634 -0.306463,-0.51683 -0.580143,-0.9638 -0.281876,-0.46444 -0.506382,-0.80662 -0.215237,-0.36784 -0.322855,-0.55176 -0.116888,-0.15826 -0.239824,-0.42024 -0.105471,-0.27017 -0.288998,-0.52503 -0.166062,-0.26305 -0.385594,-0.45839 -0.202066,-0.20353 -0.443357,-0.21817 -0.464831,0.64435 -1.011619,1.11405 -0.546789,0.4697 -1.245395,0.79753 -1.030444,0.48355 -2.650982,-0.2904 -0.06986,0.0328 -0.05562,0.15397 0.03171,0.11298 0.07981,0.2609 0.0481,0.14792 0.121862,0.30511 0.09123,0.14899 0.140401,0.25378 l 2.719911,5.84156 q 0.04918,0.10479 0.02029,0.2249 -0.01961,0.0944 -0.09055,0.17035 -0.07093,0.0759 -0.159334,0.16002 -0.07913,0.0584 -0.166456,0.0994 -0.279442,0.13113 -0.490778,-0.0467 -0.202066,-0.20354 -0.343541,-0.41419 l -1.180186,-2.51498 q -0.540919,-1.1527 -0.97812,-2.31145 -0.419736,-1.16695 -0.960655,-2.31965 -0.163915,-0.3493 -0.434768,-0.56318 -0.270853,-0.21388 -0.550975,-0.40209 -0.288319,-0.20568 -0.550976,-0.40209 -0.253388,-0.22208 -0.409107,-0.55391 -0.17211,-0.36677 0.177193,-0.53069 0.436629,-0.20489 0.856473,-0.0822 0.419843,0.12265 0.819001,0.38287 0.399157,0.26023 0.821829,0.61597 0.422671,0.35575 0.874224,0.59138 0.469018,0.22744 0.958722,0.31731 0.50717,0.0817 1.066055,-0.18059 0.714998,-0.2929 1.054352,-0.7505 0.348623,-0.48326 0.447759,-0.99863 0.108406,-0.54103 0.06997,-1.07708 -0.02917,-0.56171 -0.06975,-1.01151 -0.04878,-0.46726 -0.0063,-0.78554 0.05991,-0.32647 0.32901,-0.38881 0.175726,-0.12508 0.320422,-0.0438 0.162161,0.0731 0.304709,0.24061 0.134353,0.15007 0.216311,0.32472 0.09942,0.16646 0.132205,0.23632 0.311438,0.66367 0.493498,1.32413 0.191329,0.63479 0.510963,1.31593 0.417983,0.89073 0.950026,1.70661 0.532043,0.81589 1.107212,1.63285 0.584438,0.7913 1.116481,1.60719 0.549508,0.80769 0.959295,1.68095 0.06557,0.13972 0.07161,0.24344 0.006,0.10372 -0.04742,0.17143 -0.05347,0.0677 -0.140795,0.10869 -0.08733,0.041 -0.192117,0.0902 -0.227047,0.10654 -0.443751,0.1443 -0.199239,0.0296 -0.400231,-0.2171 z"
           inkscape:connector-curvature="0" />
      </g>
      <path
         style="fill:none;fill-opacity:1;stroke:none;stroke-width:1;stroke-linejoin:round;stroke-miterlimit:4;stroke-dasharray:none;stroke-dashoffset:0;stroke-opacity:1"
         d="m -363.42414,133.24847 c 12.61083,16.08142 31.9302,25.50594 52.41076,25.56743 20.52285,-0.0246 39.89426,-9.45292 52.53116,-25.56743"
         id="path1107"
         inkscape:connector-curvature="0" />
    </g>
  </g>
  <g
     inkscape:groupmode="layer"
     id="layer3"
     inkscape:label="Gopher rechts"
     transform="translate(0,-97)" />
  <g
     inkscape:groupmode="layer"
     id="layer4"
     inkscape:label="Gopher mitte"
     transform="translate(0,-97)">
    <ellipse
       style="fill:#7eb8f6;fill-opacity:1;stroke:#000000;stroke-width:1.06171572;stroke-miterlimit:4;stroke-dasharray:none;stroke-dashoffset:0;stroke-opacity:1"
       id="path1119-2-3-9"
       cx="137.58527"
       cy="174.34492"
       rx="6.0091386"
       ry="6.3356643"
       transform="rotate(3)" />
    <ellipse
       style="fill:#7eb8f6;fill-opacity:1;stroke:#000000;stroke-width:1.06171572;stroke-miterlimit:4;stroke-dasharray:none;stroke-dashoffset:0;stroke-opacity:1"
       id="path1119-3-0-3-7"
       cx="185.2635"
       cy="174.24927"
       rx="6.0091386"
       ry="6.3356643"
       transform="rotate(3)" />
    <path
       style="fill:#7eb8f6;fill-opacity:1;stroke:#000000;stroke-width:1.06171572;stroke-miterlimit:4;stroke-dasharray:none;stroke-dashoffset:0;stroke-opacity:1"
       d="m 153.20135,171.88886 c -14.34862,-0.752 -25.74695,5.75751 -26.80738,14.42059 -1.86572,15.24141 -2.73047,30.32982 -2.79841,45.64514 1.66722,-0.008 3.30493,-0.2847 4.98061,-0.27156 -5.68596,-24.40285 44.48372,-25.07331 40.81915,0.0359 2.10355,0.20557 3.70608,-0.0597 5.79195,0.17871 1.43777,-15.34697 3.75766,-27.93722 3.16721,-42.8651 -0.34494,-8.72072 -10.80457,-16.39176 -25.15315,-17.14376 z"
       id="path1116-2-3-4"
       inkscape:connector-curvature="0"
       sodipodi:nodetypes="cccccccsc" />
    <ellipse
       style="fill:#ffffff;stroke:#000000;stroke-width:1.06171572;stroke-miterlimit:4;stroke-dasharray:none;stroke-dashoffset:0;stroke-opacity:1"
       id="path1147-8-8-0"
       cx="147.33318"
       cy="188.11772"
       rx="9.8479185"
       ry="9.6646986"
       transform="rotate(3)" />
    <ellipse
       style="fill:#ffffff;stroke:#000000;stroke-width:1.06171572;stroke-miterlimit:4;stroke-dasharray:none;stroke-dashoffset:0;stroke-opacity:1"
       id="path1149-1-5-2"
       cx="175.02733"
       cy="188.57076"
       rx="9.7438726"
       ry="9.6102657"
       transform="rotate(3)" />
    <path
       style="fill:#ffffff;fill-opacity:1;stroke:#000000;stroke-width:1.06171572;stroke-linejoin:round;stroke-miterlimit:4;stroke-dasharray:none;stroke-dashoffset:0;stroke-opacity:1"
       d="m 146.78207,210.18211 6.68942,0.35056 -0.3214,6.13269 -6.68943,-0.35059 z"
       id="rect1163-9-4-4"
       inkscape:connector-curvature="0" />
    <path
       style="fill:#c8b7b7;stroke:#000000;stroke-width:1.06171572;stroke-miterlimit:4;stroke-dasharray:none;stroke-dashoffset:0;stroke-opacity:1"
       d="m 150.64077,205.14214 c -3.77726,-0.19803 -6.95733,1.89213 -7.10277,4.66845 -0.0511,1.03162 0.33083,2.0602 1.09389,2.94623 0.32102,0.3783 3.42035,-1.03531 5.65793,-0.91803 2.23998,0.11831 4.99649,1.91651 5.53123,1.50938 0.8527,-0.80278 1.34001,-1.78769 1.39559,-2.82071 0.14558,-2.77632 -2.79858,-5.18744 -6.57587,-5.38532 z"
       id="path1153-7-2-5"
       inkscape:connector-curvature="0" />
    <path
       style="fill:#916f6f;stroke:#000000;stroke-width:1.06171572;stroke-miterlimit:4;stroke-dasharray:none;stroke-dashoffset:0;stroke-opacity:1"
       d="m 154.91036,205.81951 c -0.11489,2.19323 -2.13025,3.87046 -4.50131,3.74619 -2.37107,-0.1243 -4.20003,-2.00296 -4.0851,-4.19616 0.11499,-2.19323 2.04175,-2.18145 4.41283,-2.05718 2.37105,0.1243 4.28854,0.31398 4.17358,2.50715 z"
       id="path1151-3-0-8"
       inkscape:connector-curvature="0" />
    <path
       style="fill:#000000;fill-opacity:1;stroke:none;stroke-width:1.06171572;stroke-miterlimit:4;stroke-dasharray:none;stroke-dashoffset:0;stroke-opacity:1"
       d="m 162.11478,197.78814 c -2.38505,-0.0857 -4.33635,2.86841 -2.79715,4.92938 1.5793,2.59548 6.23637,1.61074 6.30678,-1.55662 0.10522,-1.81649 -1.53481,-3.31542 -3.2773,-3.35504 -0.0778,-0.009 -0.1554,-0.0151 -0.23235,-0.0172 z m -22.29519,-1.0025 c -2.50501,-0.0892 -4.38596,3.191 -2.55976,5.17394 1.79389,2.43188 6.3225,1.00718 6.04321,-2.13776 -0.0898,-1.67792 -1.61507,-2.97058 -3.23919,-3.01675 -0.0819,-0.0104 -0.16344,-0.0166 -0.2443,-0.0188 z m 21.41325,2.10744 c 0.31772,0.003 0.62816,0.15949 0.81648,0.44639 0.30135,0.459 -0.42898,0.28606 -0.88503,0.58983 -0.45604,0.30376 -0.46508,0.96959 -0.76643,0.5106 -0.30136,-0.459 -0.17613,-1.0775 0.27989,-1.38127 0.17103,-0.11389 0.36447,-0.16735 0.55509,-0.16548 z m -22.08588,-0.93198 c 0.31771,0.003 0.62869,0.15952 0.81702,0.44641 0.30137,0.45896 -0.42894,0.28548 -0.88499,0.58928 -0.45606,0.30376 -0.46564,0.96956 -0.76703,0.51058 -0.30133,-0.45899 -0.17565,-1.07693 0.28038,-1.38071 0.17105,-0.11391 0.36394,-0.16738 0.55457,-0.16553 z"
       id="path1165-1-2-7"
       inkscape:connector-curvature="0" />
  </g>
  <g
     inkscape:groupmode="layer"
     id="layer5"
     inkscape:label="Gopher links"
     transform="translate(0,-97)">
    <path
       style="fill:#bce8ff;fill-opacity:1;stroke-width:0.26458332"
       d="m 129.17051,231.28175 c -0.0976,-0.15797 -0.24687,-1.11451 -0.33164,-2.12564 -0.29475,-3.51578 0.82806,-6.81479 3.22782,-9.4839 0.68167,-0.75818 2.58051,-2.31395 2.67616,-2.31396 0.0957,0 5.61995,4.62121 4.33503,7.94685 l -2.24896,5.82079 -4.7625,0.32303 c -0.87312,0.002 -1.84195,-0.11514 -2.15295,-0.0317 -0.311,0.0834 -0.64533,0.0225 -0.74296,-0.1355 z"
       id="path4947"
       inkscape:connector-curvature="0"
       sodipodi:nodetypes="cccssccccc" />
    <path
       style="fill:#a9f6cd;fill-opacity:1;stroke:none;stroke-width:0.125;stroke-opacity:1"
       d=""
       id="path5032"
       inkscape:connector-curvature="0"
       transform="scale(0.26458333)" />
    <path
       style="fill:#a9f6cd;fill-opacity:1;stroke:none;stroke-width:0.125;stroke-opacity:1"
       d=""
       id="path5034"
       inkscape:connector-curvature="0"
       transform="scale(0.26458333)" />
    <path
       style="fill:#a9f6cd;fill-opacity:1;stroke:none;stroke-width:0.25;stroke-opacity:1"
       d=""
       id="path5080"
       inkscape:connector-curvature="0"
       transform="scale(0.26458333)" />
    <path
       style="fill:#a9f6cd;fill-opacity:1;stroke:none;stroke-width:0.25;stroke-opacity:1"
       d=""
       id="path5084"
       inkscape:connector-curvature="0"
       transform="scale(0.26458333)" />
    <path
       style="fill:#a9f6cd;fill-opacity:1;stroke:none;stroke-width:0.25;stroke-opacity:1"
       d=""
       id="path5086"
       inkscape:connector-curvature="0"
       transform="scale(0.26458333)" />
    <path
       style="fill:#a9f6cd;fill-opacity:1;stroke:none;stroke-width:0.25;stroke-opacity:1"
       d=""
       id="path5088"
       inkscape:connector-curvature="0"
       transform="scale(0.26458333)" />
    <path
       style="fill:#a9f6cd;fill-opacity:1;stroke:none;stroke-width:0.25;stroke-opacity:1"
       d=""
       id="path5096"
       inkscape:connector-curvature="0"
       transform="scale(0.26458333)" />
    <path
       style="fill:#a9f6cd;fill-opacity:1;stroke:none;stroke-width:0.17677669;stroke-opacity:1"
       d=""
       id="path5102"
       inkscape:connector-curvature="0"
       transform="scale(0.26458333)" />
    <path
       style="fill:#a9f6cd;fill-opacity:1;stroke:none;stroke-width:0.17677669;stroke-opacity:1"
       d=""
       id="path5104"
       inkscape:connector-curvature="0"
       transform="scale(0.26458333)" />
    <path
       style="fill:#a9f6cd;fill-opacity:1;stroke:none;stroke-width:0.17677669;stroke-opacity:1"
       d=""
       id="path5106"
       inkscape:connector-curvature="0"
       transform="scale(0.26458333)" />
    <path
       style="fill:#a9f6cd;fill-opacity:1;stroke:none;stroke-width:0.35355338;stroke-opacity:1"
       d=""
       id="path5120"
       inkscape:connector-curvature="0"
       transform="scale(0.26458333)" />
  </g>
</svg>
